<svg height="472pt" viewBox="-108 0 472 472" width="472pt" xmlns="http://www.w3.org/2000/svg"><path d="m192 128h-128l-64-64h256zm0 0" fill="#cfdfe8"/><path d="m0 32h256v32h-256zm0 0" fill="#5a6470"/><path d="m128 0c13.253906 0 24 10.746094 24 24v80h-48v-80c0-13.253906 10.746094-24 24-24zm0 0" fill="#dd3e46"/><path d="m240 264c.117188 24.410156-3.527344 48.695312-10.800781 72-17.917969 56.71875-56.558594 96-101.199219 96s-83.28125-39.28125-101.199219-96c-7.273437-23.304688-10.917969-47.589844-10.800781-72 0-92.800781 50.160156-184 112-184s112 91.199219 112 184zm0 0" fill="#5a6470"/><path d="m128 472c-4.417969 0-8-3.582031-8-8v-32c0-4.417969 3.582031-8 8-8s8 3.582031 8 8v32c0 4.417969-3.582031 8-8 8zm0 0" fill="#dd3e46"/><path d="m229.199219 336c-17.917969 56.71875-56.558594 96-101.199219 96s-83.28125-39.28125-101.199219-96zm0 0" fill="#cfdfe8"/><path d="m136 408c-3.914062-.003906-7.25-2.839844-7.882812-6.703125-.636719-3.863281 1.617187-7.617187 5.324218-8.871094 12.390625-4.773437 22.1875-14.5625 26.964844-26.953125 1.398438-4.199218 5.933594-6.46875 10.128906-5.074218 4.199219 1.398437 6.46875 5.933593 5.074219 10.128906-6.335937 17.183594-19.882813 30.730468-37.066406 37.066406-.820313.269531-1.679688.410156-2.542969.40625zm0 0" fill="#5a6470"/><g fill="#ffd782"><path d="m128 216-16 16-56-32c5.515625-19.355469 20.644531-34.484375 40-40zm0 0"/><path d="m128 216 16 16 56-32c-5.515625-19.355469-20.644531-34.484375-40-40zm0 0"/><path d="m144 240h-32l-8 56c14.675781 9.207031 33.324219 9.207031 48 0zm0 0"/></g><path d="m152 228.105469c0 13.253906-10.746094 24-24 24s-24-10.746094-24-24c0-13.257813 10.746094-24 24-24s24 10.742187 24 24zm0 0" fill="#5a6470"/></svg>